<?xml version="1.0" encoding="UTF-8"?>
<svg id="Layer_1" data-name="Layer 1" xmlns="http://www.w3.org/2000/svg" viewBox="0 0 1417.95 324.46">
  <defs>
    <style>
      .cls-1 {
        fill: #fff;
      }
    </style>
  </defs>
  <path class="cls-1" d="M312.63,135.43c7.66-23.44,16.07-43.69,25.24-60.75,9.17-17.06,18.85-31.1,29.07-42.12,10.21-11.02,20.77-19.2,31.68-24.54,10.91-5.34,22.05-8.01,33.42-8.01,6.27,0,11.66.87,16.19,2.61,4.53,1.74,8.24,4.06,11.14,6.96,2.9,2.91,5.05,6.15,6.44,9.75,1.39,3.6,2.09,7.37,2.09,11.31,0,8.36-2.67,14.1-8.01,17.23-5.34,3.13-12.36,5.46-21.06,6.96-8.7,1.51-18.4,3.08-29.07,4.7-10.68,1.63-21.41,5.17-32.2,10.62-10.79,5.46-21.01,13.58-30.64,24.37-9.63,10.79-17.58,26.17-23.85,46.13l-57.09,180.33h-37.95l-47.35-150.39-47.69,150.39h-37.95L27.15,105.49c-3.48-10.91-7.95-19.26-13.4-25.07-5.46-5.8-10.04-8.7-13.75-8.7v-3.48h106.53v3.48c-7.2,0-11.96,2.96-14.27,8.88-2.32,5.92-1.51,14.68,2.44,26.28l47,143.78,32.72-99.91-14.27-45.26c-3.48-10.91-7.95-19.26-13.4-25.07-5.46-5.8-10.04-8.7-13.75-8.7v-3.48h106.53v3.48c-7.2,0-11.96,2.96-14.27,8.88-2.32,5.92-1.51,14.68,2.44,26.28l47,144.13,37.95-115.58Z"/>
  <path class="cls-1" d="M387.82,219.67c1.16,22.28,6.67,39.34,16.54,51.18,9.86,11.84,22.68,17.75,38.47,17.75,3.25,0,7.54-.29,12.88-.87,5.34-.58,10.79-2.14,16.36-4.7,5.57-2.55,10.79-6.32,15.67-11.31,4.87-4.99,8.24-12.01,10.1-21.06h3.48c-.93,11.84-3.66,22.34-8.18,31.51-4.53,9.17-10.39,16.88-17.58,23.15-7.2,6.27-15.55,11.03-25.07,14.27-9.52,3.25-19.84,4.87-30.98,4.87-13.46,0-25.82-2.32-37.08-6.96-11.26-4.64-20.95-11.14-29.07-19.5-8.13-8.35-14.45-18.33-18.97-29.94-4.53-11.6-6.79-24.37-6.79-38.3s2.14-26.57,6.44-37.95c4.29-11.37,10.32-21.12,18.1-29.24,7.77-8.12,17.06-14.45,27.85-18.97,10.79-4.53,22.68-6.79,35.68-6.79,11.84,0,22.92,1.91,33.25,5.74,10.32,3.83,19.32,9.17,26.98,16.01,7.66,6.85,13.69,14.85,18.1,24.02,4.41,9.17,6.61,19.09,6.61,29.76v7.31h-112.8ZM443.18,211.32c-.7-20.42-3.37-36.49-8.01-48.22-4.64-11.72-10.68-17.58-18.1-17.58-4.41,0-8.36,1.74-11.84,5.22-3.48,3.48-6.5,8.24-9.05,14.27-2.56,6.04-4.53,13.05-5.92,21.06s-2.32,16.42-2.79,25.24h55.7Z"/>
  <path class="cls-1" d="M573.38,282.69c0,4.18.46,8.36,1.39,12.53.92,4.18,2.14,7.95,3.65,11.31,1.51,3.37,3.25,6.04,5.22,8.01,1.97,1.97,4,2.96,6.09,2.96v3.48h-91.91v-3.48c2.09,0,4.12-.98,6.09-2.96s3.71-4.53,5.22-7.66c1.51-3.13,2.73-6.73,3.66-10.79.92-4.06,1.39-8.06,1.39-12.01V105.83c0-4.41-.47-8.64-1.39-12.71-.93-4.06-2.15-7.66-3.66-10.79-1.51-3.13-3.25-5.68-5.22-7.66-1.97-1.97-4-2.96-6.09-2.96v-3.48c6.49-.46,12.99-1.1,19.5-1.91,6.5-.81,12.88-1.79,19.15-2.96,6.27-1.16,12.18-2.49,17.75-4,5.57-1.51,10.56-3.31,14.97-5.4h4.18v228.73Z"/>
  <path class="cls-1" d="M675.73,282.69c0,4.18.46,8.36,1.39,12.53.92,4.18,2.14,7.95,3.65,11.31,1.51,3.37,3.25,6.04,5.22,8.01,1.97,1.97,4,2.96,6.09,2.96v3.48h-91.91v-3.48c2.09,0,4.12-.98,6.09-2.96s3.71-4.53,5.22-7.66c1.51-3.13,2.73-6.73,3.66-10.79.92-4.06,1.39-8.06,1.39-12.01V105.83c0-4.41-.47-8.64-1.39-12.71-.93-4.06-2.15-7.66-3.66-10.79-1.51-3.13-3.25-5.68-5.22-7.66-1.97-1.97-4-2.96-6.09-2.96v-3.48c6.49-.46,12.99-1.1,19.5-1.91,6.5-.81,12.88-1.79,19.15-2.96,6.27-1.16,12.18-2.49,17.75-4,5.57-1.51,10.56-3.31,14.97-5.4h4.18v228.73Z"/>
  <path class="cls-1" d="M776.34,140.3h36.9v8.7h-36.9v133.68c0,4.18.46,8.36,1.39,12.53.92,4.18,2.14,7.95,3.65,11.31,1.51,3.37,3.25,6.04,5.22,8.01,1.97,1.97,4,2.96,6.09,2.96v3.48h-91.91v-3.48c2.09,0,4.12-.98,6.09-2.96s3.71-4.53,5.22-7.66c1.51-3.13,2.73-6.73,3.66-10.79.92-4.06,1.39-8.06,1.39-12.01v-135.08h-12.53v-8.7h12.53v-6.61c0-22.51,6.21-39.69,18.63-51.52,12.41-11.84,30.46-17.76,54.14-17.76,9.51,0,18.16,1.04,25.94,3.13,7.77,2.09,14.45,4.99,20.02,8.7,5.57,3.71,9.92,8.18,13.06,13.4,3.13,5.22,4.7,10.97,4.7,17.23,0,7.43-2.61,13.46-7.83,18.1-5.22,4.65-12.01,6.96-20.37,6.96-7.89,0-13.99-2.26-18.28-6.79-4.3-4.53-6.44-10.5-6.44-17.93,0-9.05-.76-17-2.26-23.85-1.51-6.84-4.35-10.27-8.53-10.27-9.05,0-13.58,9.87-13.58,29.59v37.6Z"/>
  <path class="cls-1" d="M925.69,282.69c0,4.18.46,8.36,1.39,12.53.92,4.18,2.14,7.95,3.65,11.31,1.51,3.37,3.25,6.04,5.22,8.01,1.97,1.97,4,2.96,6.09,2.96v3.48h-91.91v-3.48c2.09,0,4.12-.98,6.09-2.96s3.71-4.53,5.22-7.66c1.51-3.13,2.73-6.73,3.66-10.79.92-4.06,1.39-8.06,1.39-12.01V105.83c0-4.41-.47-8.64-1.39-12.71-.93-4.06-2.15-7.66-3.66-10.79-1.51-3.13-3.25-5.68-5.22-7.66-1.97-1.97-4-2.96-6.09-2.96v-3.48c6.49-.46,12.99-1.1,19.5-1.91,6.5-.81,12.88-1.79,19.15-2.96,6.27-1.16,12.18-2.49,17.75-4,5.57-1.51,10.56-3.31,14.97-5.4h4.18v228.73Z"/>
  <path class="cls-1" d="M938.57,230.81c0-13.46,2.49-25.94,7.48-37.42,4.99-11.49,11.84-21.41,20.54-29.76,8.7-8.36,19.03-14.91,30.98-19.67,11.95-4.75,24.77-7.14,38.47-7.14s26.4,2.38,38.12,7.14c11.72,4.76,21.87,11.31,30.46,19.67,8.58,8.35,15.37,18.28,20.37,29.76,4.99,11.49,7.48,23.97,7.48,37.42s-2.5,25.59-7.48,37.08c-4.99,11.49-11.78,21.41-20.37,29.77-8.59,8.36-18.75,14.92-30.46,19.67-11.72,4.76-24.43,7.14-38.12,7.14s-26.52-2.38-38.47-7.14c-11.96-4.75-22.28-11.31-30.98-19.67-8.7-8.35-15.55-18.28-20.54-29.77-4.99-11.49-7.48-23.85-7.48-37.08ZM1001.93,230.47c0,16.71.87,30.58,2.61,41.6,1.74,11.03,4.18,19.73,7.31,26.11,3.13,6.39,6.73,10.91,10.79,13.58,4.06,2.67,8.41,4,13.05,4s8.99-1.33,13.06-4c4.06-2.67,7.6-7.19,10.62-13.58,3.01-6.38,5.4-15.08,7.14-26.11,1.74-11.02,2.61-24.89,2.61-41.6s-.87-30.52-2.61-41.43c-1.74-10.91-4.12-19.55-7.14-25.94-3.02-6.38-6.56-10.91-10.62-13.58-4.06-2.67-8.42-4-13.06-4s-9,1.34-13.05,4c-4.06,2.67-7.66,7.2-10.79,13.58-3.13,6.39-5.57,15.03-7.31,25.94-1.74,10.91-2.61,24.72-2.61,41.43Z"/>
  <path class="cls-1" d="M1189.92,320.98l-53.26-143.78c-4.18-11.6-8.88-20.07-14.1-25.41-5.22-5.34-10.04-8.01-14.45-8.01v-3.48h97.13v3.48c-4.18,0-6.96,2.67-8.35,8.01-1.39,5.34.11,13.81,4.53,25.41l32.72,87.03,20.89-58.49-10.44-28.55c-4.18-11.6-8.88-20.07-14.1-25.41-5.22-5.34-10.04-8.01-14.45-8.01v-3.48h97.13v3.48c-4.18,0-6.96,2.67-8.36,8.01-1.39,5.34.11,13.81,4.53,25.41l32.73,87.03,31.68-87.73c2.09-5.57,3.07-10.44,2.96-14.62-.12-4.18-.87-7.66-2.26-10.44-1.39-2.79-3.19-4.81-5.4-6.09-2.21-1.27-4.35-1.92-6.44-1.92v-3.13h55.35v3.13c-2.09,0-4.76.64-8.01,1.92-3.25,1.28-6.56,3.31-9.92,6.09-3.37,2.78-6.62,6.27-9.75,10.44-3.13,4.18-5.74,9.05-7.83,14.62l-52.57,144.48h-32.03l-38.3-103.4-37.6,103.4h-32.03Z"/>
</svg>